<svg xmlns="http://www.w3.org/2000/svg" viewBox="0 0 186 33" fill="none">
<path d="M56.704 22.556L57.768 24.18C56.6853 25.58 55.0707 26.28 52.924 26.28C50.908 26.28 49.2747 25.6827 48.024 24.488C46.792 23.2933 46.176 21.6973 46.176 19.7C46.176 17.852 46.7827 16.2933 47.996 15.024C49.2093 13.7547 50.7307 13.12 52.56 13.12C54.7627 13.12 56.4147 13.6707 57.516 14.772L56.48 16.536C55.5093 15.6587 54.3053 15.22 52.868 15.22C51.692 15.22 50.6747 15.6493 49.816 16.508C48.976 17.348 48.556 18.412 48.556 19.7C48.556 21.0627 48.9853 22.1453 49.844 22.948C50.7213 23.7693 51.804 24.18 53.092 24.18C54.548 24.18 55.752 23.6387 56.704 22.556ZM62.9279 26H60.6879V6.4H62.9279V14.856C64.0479 13.736 65.4199 13.176 67.0439 13.176C70.5345 13.176 72.2799 15.0427 72.2799 18.776V26H70.0399V19.084C70.0399 16.5453 68.8639 15.276 66.5119 15.276C65.8585 15.276 65.1959 15.4253 64.5239 15.724C63.8705 16.0227 63.3385 16.4053 62.9279 16.872V26ZM76.7271 16.06L76.1391 14.268C77.3897 13.5027 78.7897 13.12 80.3391 13.12C82.0377 13.12 83.2697 13.54 84.0351 14.38C84.8004 15.22 85.1831 16.5173 85.1831 18.272V26H83.0551V24.376C82.0657 25.5893 80.7217 26.196 79.0231 26.196C77.8657 26.196 76.9324 25.8507 76.2231 25.16C75.5137 24.4507 75.1591 23.4987 75.1591 22.304C75.1591 21.072 75.5977 20.1013 76.4751 19.392C77.3524 18.664 78.5004 18.3 79.9191 18.3C81.2444 18.3 82.2897 18.5707 83.0551 19.112C83.0551 17.6933 82.8591 16.676 82.4671 16.06C82.0751 15.444 81.3191 15.136 80.1991 15.136C79.0604 15.136 77.9031 15.444 76.7271 16.06ZM79.8071 24.18C81.0577 24.18 82.1404 23.6387 83.0551 22.556V20.96C82.2711 20.4 81.3284 20.12 80.2271 20.12C79.4617 20.12 78.8177 20.3067 78.2951 20.68C77.7911 21.0347 77.5391 21.5387 77.5391 22.192C77.5391 22.808 77.7351 23.2933 78.1271 23.648C78.5377 24.0027 79.0977 24.18 79.8071 24.18ZM91.174 26H88.934V13.4H91.174V14.94C91.6406 14.4173 92.2473 13.9973 92.994 13.68C93.7593 13.344 94.5246 13.176 95.29 13.176C98.7806 13.176 100.526 15.024 100.526 18.72V26H98.286V19.14C98.286 16.564 97.1006 15.276 94.73 15.276C93.3113 15.276 92.126 15.8173 91.174 16.9V26ZM102.565 27.82C102.565 26.8493 102.92 26.0373 103.629 25.384C104.338 24.7307 105.328 24.264 106.597 23.984C106.392 23.7227 106.289 23.3773 106.289 22.948C106.289 22.5187 106.401 22.164 106.625 21.884C105.729 21.5293 105.029 20.988 104.525 20.26C104.04 19.532 103.797 18.692 103.797 17.74C103.797 16.4333 104.264 15.3413 105.197 14.464C106.149 13.568 107.4 13.12 108.949 13.12C110.144 13.12 111.208 13.428 112.141 14.044L115.837 13.148L115.893 14.968L113.513 15.556C113.905 16.2093 114.101 16.9373 114.101 17.74C114.101 19.028 113.625 20.1107 112.673 20.988C111.74 21.8467 110.498 22.276 108.949 22.276C108.52 22.276 108.24 22.2667 108.109 22.248C108.016 22.472 107.969 22.7053 107.969 22.948C107.969 23.284 108.053 23.564 108.221 23.788C108.258 23.788 108.37 23.788 108.557 23.788C108.762 23.7693 108.902 23.76 108.977 23.76C110.937 23.76 112.496 24.1147 113.653 24.824C114.81 25.5147 115.389 26.5133 115.389 27.82C115.389 29.0893 114.81 30.0693 113.653 30.76C112.496 31.4693 110.937 31.824 108.977 31.824C106.998 31.824 105.43 31.4787 104.273 30.788C103.134 30.116 102.565 29.1267 102.565 27.82ZM113.289 27.82C113.289 27.1293 112.906 26.5787 112.141 26.168C111.376 25.776 110.321 25.58 108.977 25.58C107.633 25.58 106.578 25.776 105.813 26.168C105.048 26.5787 104.665 27.1293 104.665 27.82C104.665 28.5107 105.048 29.0427 105.813 29.416C106.578 29.808 107.633 30.004 108.977 30.004C110.321 30.004 111.376 29.8173 112.141 29.444C112.906 29.0707 113.289 28.5293 113.289 27.82ZM105.897 17.74C105.897 18.524 106.177 19.1773 106.737 19.7C107.316 20.204 108.053 20.456 108.949 20.456C109.845 20.456 110.573 20.204 111.133 19.7C111.712 19.196 112.001 18.5427 112.001 17.74C112.001 16.9373 111.721 16.2747 111.161 15.752C110.582 15.2107 109.845 14.94 108.949 14.94C108.053 14.94 107.316 15.2107 106.737 15.752C106.177 16.2747 105.897 16.9373 105.897 17.74ZM128.077 22.864L128.777 24.628C127.564 25.7293 125.986 26.28 124.045 26.28C121.992 26.28 120.358 25.6827 119.145 24.488C117.913 23.2933 117.297 21.6973 117.297 19.7C117.297 17.8147 117.876 16.2467 119.033 14.996C120.172 13.7453 121.758 13.12 123.793 13.12C125.473 13.12 126.864 13.6613 127.965 14.744C129.085 15.808 129.645 17.1893 129.645 18.888C129.645 19.4293 129.598 19.9333 129.505 20.4H119.817C119.91 21.576 120.349 22.5 121.133 23.172C121.936 23.844 122.962 24.18 124.213 24.18C125.856 24.18 127.144 23.7413 128.077 22.864ZM123.681 15.22C122.58 15.22 121.665 15.528 120.937 16.144C120.228 16.76 119.808 17.572 119.677 18.58H127.321C127.265 17.5347 126.91 16.7133 126.257 16.116C125.622 15.5187 124.764 15.22 123.681 15.22Z" fill="white"/>
<path d="M134.924 26H132.684V6.4H134.924V14.856C136.044 13.736 137.416 13.176 139.04 13.176C142.531 13.176 144.276 15.0427 144.276 18.776V26H142.036V19.084C142.036 16.5453 140.86 15.276 138.508 15.276C137.855 15.276 137.192 15.4253 136.52 15.724C135.867 16.0227 135.335 16.4053 134.924 16.872V26ZM157.991 22.864L158.691 24.628C157.478 25.7293 155.9 26.28 153.959 26.28C151.906 26.28 150.272 25.6827 149.059 24.488C147.827 23.2933 147.211 21.6973 147.211 19.7C147.211 17.8147 147.79 16.2467 148.947 14.996C150.086 13.7453 151.672 13.12 153.707 13.12C155.387 13.12 156.778 13.6613 157.879 14.744C158.999 15.808 159.559 17.1893 159.559 18.888C159.559 19.4293 159.512 19.9333 159.419 20.4H149.731C149.824 21.576 150.263 22.5 151.047 23.172C151.85 23.844 152.876 24.18 154.127 24.18C155.77 24.18 157.058 23.7413 157.991 22.864ZM153.595 15.22C152.494 15.22 151.579 15.528 150.851 16.144C150.142 16.76 149.722 17.572 149.591 18.58H157.235C157.179 17.5347 156.824 16.7133 156.171 16.116C155.536 15.5187 154.678 15.22 153.595 15.22ZM164.838 26H162.598V13.4H164.838V14.884C165.585 13.7453 166.639 13.176 168.002 13.176C168.879 13.176 169.533 13.3347 169.962 13.652L169.178 15.752C168.637 15.4347 168.067 15.276 167.47 15.276C166.331 15.276 165.454 15.8733 164.838 17.068V26ZM173.122 24.432C171.89 23.1627 171.274 21.5853 171.274 19.7C171.274 17.796 171.89 16.228 173.122 14.996C174.372 13.7453 175.996 13.12 177.994 13.12C179.991 13.12 181.606 13.7453 182.838 14.996C184.088 16.228 184.714 17.796 184.714 19.7C184.714 21.604 184.088 23.1813 182.838 24.432C181.606 25.664 179.991 26.28 177.994 26.28C176.015 26.28 174.391 25.664 173.122 24.432ZM174.886 16.48C174.064 17.3013 173.654 18.3747 173.654 19.7C173.654 21.0253 174.055 22.0987 174.858 22.92C175.679 23.76 176.724 24.18 177.994 24.18C179.263 24.18 180.299 23.7693 181.102 22.948C181.923 22.108 182.334 21.0253 182.334 19.7C182.334 18.412 181.923 17.3387 181.102 16.48C180.299 15.64 179.263 15.22 177.994 15.22C176.724 15.22 175.688 15.64 174.886 16.48Z" fill="#18258F"/>
<path d="M27.783 19.3267L20.0306 29.2496L19.1644 22.3227L14.054 21.7702L27.783 19.3267Z" fill="#03578C"/>
<path d="M19.9224 17.3718L14.054 21.7703L15.2666 10.2749L19.9224 17.3718Z" fill="#03578C"/>
<path d="M19.7924 17.3506L15.2666 10.2749L19.5542 11.2523L19.7924 17.3506Z" fill="#0099F7"/>
<path d="M34.3875 21.239H34.3659L33.1749 29.2709H20.0305V29.2496L27.7829 19.3267L34.3875 21.239Z" fill="#28ADFF"/>
<path d="M14.054 21.7702L19.8357 17.4356L19.7924 17.3506L27.783 19.3267L14.054 21.7702Z" fill="#0099F7"/>
<path d="M23.0623 15.1196L19.9223 17.372L19.7924 17.3507L19.5542 11.2524L27.6747 13.1435L27.6963 13.1223L28.3893 15.6084L23.0623 15.1196Z" fill="#0474BA"/>
<path d="M39.0001 20.7928L34.3877 21.239L27.783 19.3267L28.1728 19.1992L23.084 15.1195L34.0196 19.1142L36.1634 19.9216L36.6398 19.4329L35.9035 16.1182L33.3916 16.0757L29.2339 15.6932L32.4171 14.4183L36.1634 15.757L36.4449 9.67993L36.7047 9.76493L39.0001 20.7928Z" fill="#0474BA"/>
<path d="M36.6395 19.4329L36.1631 19.9216L34.0193 19.1142L33.3914 16.0757L35.9033 16.1182L36.6395 19.4329Z" fill="#03578C"/>
<path d="M27.9561 2.54051L25.4659 3.15672L22.5425 4.47411L22.5858 2.753L27.2848 0.0119629L27.9561 2.54051Z" fill="#49484D"/>
<path d="M29.2121 7.27891L22.4775 7.23641L22.5425 4.47413L25.4659 3.15673L27.9562 2.54053L29.2121 7.27891Z" fill="#FFB536"/>
<path d="M15.2665 10.3386L5.86841 29.4196H5.84675L0 30.9283L15.2665 10.3386Z" fill="#FFC767"/>
<path d="M15.3098 10.2749L14.0539 21.7703L8.38035 30.9283L5.86841 29.4197L15.2665 10.3386L15.3098 10.2749Z" fill="#FFB536"/>
<path d="M17.5836 22.1527L14.4004 30.1209L8.38037 30.9283L14.0539 21.7703L17.5836 22.1527Z" fill="#FFC767"/>
<path d="M20.0306 29.271L19.381 32.0121L14.4437 30.121H14.4004L17.5836 22.1528L19.1644 22.3228L20.0306 29.271Z" fill="#FFB536"/>
<path d="M27.6746 13.1434L15.3098 10.2748L22.4775 7.23633H22.5858L26.7002 11.996L27.6746 13.1434Z" fill="#FFB536"/>
<path d="M36.2282 9.61622H36.2066L27.6747 13.1434L26.7002 11.996L30.5764 7.68262L36.2282 9.61622Z" fill="#FFC767"/>
<path d="M30.5764 7.68254L26.7002 11.996L22.4775 7.23633L29.2121 7.27882L30.5547 7.68254H30.5764Z" fill="#03578C"/>
<path d="M36.2065 9.61621L34.9722 12.1873L32.4386 14.4183H32.4169L29.2337 15.6932L28.3892 15.6082L27.6746 13.1434L36.1848 9.63746L36.2065 9.61621Z" fill="#0099F7"/>
<path d="M28.1725 19.1993L27.7827 19.3268L19.9438 17.3932L19.9221 17.372L23.0837 15.1196L28.1725 19.1993Z" fill="#03578C"/>
<path d="M34.0195 19.1143L23.0839 15.1196H23.0623L28.3893 15.6083L29.2338 15.6933L33.3915 16.0758L34.0195 19.1143Z" fill="#0099F7"/>
<path d="M36.4448 9.67996L36.1632 15.757L32.417 14.4183H32.4386L34.9722 12.1873L36.2066 9.61621H36.2282L36.4448 9.67996Z" fill="#03578C"/>
</svg>