<?xml version="1.0" encoding="UTF-8" standalone="no"?>
<!-- Generator: Adobe Illustrator 16.0.0, SVG Export Plug-In . SVG Version: 6.00 Build 0)  -->

<svg
   version="1.1"
   id="图层_1"
   x="0px"
   y="0px"
   width="967.55902"
   height="967.55908"
   viewBox="0 0 967.55903 967.5591"
   enable-background="new 0 0 275.426 118.741"
   xml:space="preserve"
   sodipodi:docname="X World Games Coin Icon 256x256.svg"
   inkscape:version="1.1 (c68e22c387, 2021-05-23)"
   xmlns:inkscape="http://www.inkscape.org/namespaces/inkscape"
   xmlns:sodipodi="http://sodipodi.sourceforge.net/DTD/sodipodi-0.dtd"
   xmlns="http://www.w3.org/2000/svg"
   xmlns:svg="http://www.w3.org/2000/svg"><defs
   id="defs1392" /><sodipodi:namedview
   id="namedview1390"
   pagecolor="#ffffff"
   bordercolor="#666666"
   borderopacity="1.0"
   inkscape:pageshadow="2"
   inkscape:pageopacity="0.0"
   inkscape:pagecheckerboard="0"
   showgrid="false"
   inkscape:zoom="0.18221773"
   inkscape:cx="139.94247"
   inkscape:cy="496.65858"
   inkscape:window-width="1366"
   inkscape:window-height="705"
   inkscape:window-x="-8"
   inkscape:window-y="-8"
   inkscape:window-maximized="1"
   inkscape:current-layer="图层_1" />


<linearGradient
   id="SVGID_1_"
   gradientUnits="userSpaceOnUse"
   x1="-458.09619"
   y1="-2111.9551"
   x2="487.58859"
   y2="-1858.5596"
   gradientTransform="matrix(0.1425,0,0,-0.1425,201.2791,-221.2839)">
	<stop
   offset="0"
   style="stop-color:#1C2A55"
   id="stop1147" />
	<stop
   offset="0.0699"
   style="stop-color:#772F85"
   id="stop1149" />
	<stop
   offset="0.2097"
   style="stop-color:#D5206D"
   id="stop1151" />
	<stop
   offset="0.3387"
   style="stop-color:#E89214"
   id="stop1153" />
	<stop
   offset="0.5054"
   style="stop-color:#2BA23A"
   id="stop1155" />
	<stop
   offset="0.6989"
   style="stop-color:#1E95D4"
   id="stop1157" />
	<stop
   offset="0.8226"
   style="stop-color:#58207C"
   id="stop1159" />
	<stop
   offset="1"
   style="stop-color:#88167A"
   id="stop1161" />
</linearGradient>

<linearGradient
   id="SVGID_2_"
   gradientUnits="userSpaceOnUse"
   x1="-1311.2534"
   y1="-1701.6143"
   x2="-676.22668"
   y2="-1932.7451"
   gradientTransform="matrix(0.1425,0,0,-0.1425,201.2791,-221.2839)">
	<stop
   offset="0"
   style="stop-color:#1C2A55"
   id="stop1166" />
	<stop
   offset="0.0312"
   style="stop-color:#1C2A55"
   id="stop1168" />
	<stop
   offset="0.0425"
   style="stop-color:#202A58"
   id="stop1170" />
	<stop
   offset="0.0505"
   style="stop-color:#282A5E"
   id="stop1172" />
	<stop
   offset="0.057"
   style="stop-color:#382869"
   id="stop1174" />
	<stop
   offset="0.0626"
   style="stop-color:#4F2774"
   id="stop1176" />
	<stop
   offset="0.0674"
   style="stop-color:#682C7F"
   id="stop1178" />
	<stop
   offset="0.0699"
   style="stop-color:#772F85"
   id="stop1180" />
	<stop
   offset="0.1324"
   style="stop-color:#792F85"
   id="stop1182" />
	<stop
   offset="0.1549"
   style="stop-color:#802D83"
   id="stop1184" />
	<stop
   offset="0.1709"
   style="stop-color:#8A2B80"
   id="stop1186" />
	<stop
   offset="0.1839"
   style="stop-color:#99277C"
   id="stop1188" />
	<stop
   offset="0.195"
   style="stop-color:#AD2276"
   id="stop1190" />
	<stop
   offset="0.2047"
   style="stop-color:#C62270"
   id="stop1192" />
	<stop
   offset="0.2097"
   style="stop-color:#D5206D"
   id="stop1194" />
	<stop
   offset="0.2646"
   style="stop-color:#D5206B"
   id="stop1196" />
	<stop
   offset="0.2844"
   style="stop-color:#D62666"
   id="stop1198" />
	<stop
   offset="0.2986"
   style="stop-color:#D82E5D"
   id="stop1200" />
	<stop
   offset="0.31"
   style="stop-color:#DB3B50"
   id="stop1202" />
	<stop
   offset="0.3197"
   style="stop-color:#DE4F3F"
   id="stop1204" />
	<stop
   offset="0.3284"
   style="stop-color:#E2692B"
   id="stop1206" />
	<stop
   offset="0.336"
   style="stop-color:#E78619"
   id="stop1208" />
	<stop
   offset="0.3387"
   style="stop-color:#E89214"
   id="stop1210" />
	<stop
   offset="0.4032"
   style="stop-color:#E69215"
   id="stop1212" />
	<stop
   offset="0.4264"
   style="stop-color:#E09315"
   id="stop1214" />
	<stop
   offset="0.4429"
   style="stop-color:#D59516"
   id="stop1216" />
	<stop
   offset="0.4563"
   style="stop-color:#C69615"
   id="stop1218" />
	<stop
   offset="0.4678"
   style="stop-color:#B1991B"
   id="stop1220" />
	<stop
   offset="0.4779"
   style="stop-color:#979A24"
   id="stop1222" />
	<stop
   offset="0.4871"
   style="stop-color:#789C2E"
   id="stop1224" />
	<stop
   offset="0.4955"
   style="stop-color:#549E35"
   id="stop1226" />
	<stop
   offset="0.5031"
   style="stop-color:#36A138"
   id="stop1228" />
	<stop
   offset="0.5054"
   style="stop-color:#2BA23A"
   id="stop1230" />
	<stop
   offset="0.5659"
   style="stop-color:#2BA23C"
   id="stop1232" />
	<stop
   offset="0.5877"
   style="stop-color:#28A142"
   id="stop1234" />
	<stop
   offset="0.6032"
   style="stop-color:#27A14C"
   id="stop1236" />
	<stop
   offset="0.6158"
   style="stop-color:#25A15C"
   id="stop1238" />
	<stop
   offset="0.6265"
   style="stop-color:#1F9F70"
   id="stop1240" />
	<stop
   offset="0.6361"
   style="stop-color:#1E9E8A"
   id="stop1242" />
	<stop
   offset="0.6447"
   style="stop-color:#199BA7"
   id="stop1244" />
	<stop
   offset="0.6523"
   style="stop-color:#1897C6"
   id="stop1246" />
	<stop
   offset="0.6559"
   style="stop-color:#1E95D4"
   id="stop1248" />
	<stop
   offset="0.7243"
   style="stop-color:#1E93D2"
   id="stop1250" />
	<stop
   offset="0.749"
   style="stop-color:#1F8DCE"
   id="stop1252" />
	<stop
   offset="0.7665"
   style="stop-color:#2083C6"
   id="stop1254" />
	<stop
   offset="0.7807"
   style="stop-color:#2173BB"
   id="stop1256" />
	<stop
   offset="0.7929"
   style="stop-color:#2D60AC"
   id="stop1258" />
	<stop
   offset="0.8036"
   style="stop-color:#3A469B"
   id="stop1260" />
	<stop
   offset="0.8131"
   style="stop-color:#502887"
   id="stop1262" />
	<stop
   offset="0.8172"
   style="stop-color:#58207C"
   id="stop1264" />
	<stop
   offset="0.8783"
   style="stop-color:#5A207C"
   id="stop1266" />
	<stop
   offset="0.9004"
   style="stop-color:#611F7A"
   id="stop1268" />
	<stop
   offset="0.9161"
   style="stop-color:#6B1D7B"
   id="stop1270" />
	<stop
   offset="0.9287"
   style="stop-color:#7B197B"
   id="stop1272" />
	<stop
   offset="0.9355"
   style="stop-color:#88167A"
   id="stop1274" />
</linearGradient>




























<g
   id="g1610"
   transform="scale(8.1486205,8.1484833)"><path
     fill="url(#SVGID_2_)"
     d="m 117.375,58.649 c 0,0 0,0.08 0,0 0,0.08 0,0 0,0 z"
     id="path1277"
     style="fill:url(#SVGID_2_)" /><path
     fill="#59438f"
     d="m 11.711,25.836 c 0,0 2.007,4.01 3.931,10.589 l 2.167,-4.973 z"
     id="path1279" /><path
     fill="#80478f"
     d="m 21.982,40.838 6.498,6.257 1.688,-4.25 -12.359,-11.392 -2.167,4.973 c 2.568,8.825 5.135,22.144 2.733,36.345 L 23.669,59.372 C 23.505,54.157 23.027,47.979 21.982,40.838 Z"
     id="path1281" /><path
     fill="#d42c78"
     d="m 34.578,68.439 1.605,1.765 2.084,-6.181 -9.544,-9.786 c 0,0 3.447,17.33 -3.371,33.374 0,0 1.924,-0.721 5.455,-1.766 l 3.771,-10.99 c 0.242,-1.766 0.242,-3.932 0,-6.416 z"
     id="path1283" /><polygon
     fill="#d42c78"
     points="39.312,51.188 30.168,42.765 28.48,47.095 39.312,57.525 41.236,55.521 45.008,44.447 "
     id="polygon1285" /><path
     fill="#d42c78"
     d="m 13.476,88.656 c 0,0 10.831,-1.045 10.194,-29.284 l -5.294,13.399 c -0.886,5.294 -2.491,10.59 -4.9,15.885 z"
     id="path1287" /><path
     fill="#d42c78"
     d="m 18.375,72.771 v 0 l 5.294,-13.399 v 0 z"
     id="path1289" /><polygon
     fill="#d42c78"
     points="30.168,42.765 28.48,47.015 28.48,47.095 "
     id="polygon1291" /><path
     fill="#deb343"
     d="m 38.592,72.689 c 0,0 12.035,-5.614 19.414,-16.767 0,0 0.242,0.318 0.72,0.882 l 2.167,-7.06 c -1.204,-1.446 -2.167,-2.809 -2.727,-3.931 0,0 -9.067,15.483 -18.936,19.172 l -0.88,-0.88 -2.084,6.18 z"
     id="path1293" /><polygon
     fill="#deb343"
     points="63.141,42.121 64.824,36.505 58.006,29.204 45.008,44.447 41.236,55.521 58.407,37.148 "
     id="polygon1295" /><path
     fill="#deb343"
     d="m 32.571,81.755 c 0,0 1.528,-2.485 2.007,-6.9 l -3.771,10.99 c 4.492,-1.286 11.55,-2.886 20.216,-3.771 l 1.688,-5.696 c -7.219,0.643 -14.278,2.166 -20.14,5.377 z"
     id="path1297" /><polygon
     fill="#81ba5a"
     points="77.98,50.465 64.824,36.505 63.141,42.121 77.019,56.884 78.943,49.582 "
     id="polygon1299" /><path
     fill="#81ba5a"
     d="m 73.247,70.923 1.848,-6.817 C 72.527,61.775 65.148,54.957 60.816,49.662 l -2.166,7.063 c 2.083,2.564 8.499,10.108 14.597,14.198 z"
     id="path1301" /><path
     fill="#81ba5a"
     d="m 52.794,76.377 -1.688,5.696 C 56.962,81.512 63.46,81.27 70.521,81.755 l 1.286,-4.971 C 65.786,76.135 59.21,75.9 52.794,76.377 Z"
     id="path1303" /><path
     fill="#5ea4d4"
     d="m 97.318,55.04 c -0.083,0.72 -0.083,1.522 -0.16,2.246 l 0.561,-2.409 c -0.082,0.08 -0.242,0.08 -0.401,0.163 z"
     id="path1305" /><path
     fill="#5ea4d4"
     d="M 77.178,57.124 94.832,40.758 c 0,0 -1.204,4.011 -2.007,10.268 1.842,-0.883 3.53,-1.444 5.136,-1.844 1.039,-7.061 3.128,-14.763 6.818,-23.027 l 0.082,-0.318 -25.995,23.666 -1.924,7.301 z"
     id="path1307" /><path
     fill="#5ea4d4"
     stroke="#5ea4d4"
     stroke-width="0.25"
     stroke-miterlimit="10"
     d="m 97.318,55.04 c 0.158,-1.928 0.318,-3.852 0.643,-5.858 -1.606,0.321 -3.37,0.964 -5.136,1.844 -0.241,1.927 -0.484,4.093 -0.561,6.339 1.607,-0.882 3.289,-1.685 5.054,-2.325 z"
     id="path1309" /><path
     fill="#5ea4d4"
     d="m 75.979,64.91 c 0,0 -0.324,-0.32 -0.885,-0.804 l -1.848,6.817 c 0.885,0.644 1.766,1.122 2.65,1.605 0,0 6.818,-9.709 16.369,-15.164 0.077,-2.325 0.319,-4.412 0.561,-6.339 -4.893,2.33 -10.43,6.582 -16.847,13.885 z"
     id="path1311" /><path
     fill="#5ea4d4"
     d="m 71.724,76.785 -1.281,4.971 c 6.333,0.401 13.074,1.44 19.975,3.37 l 1.204,-4.894 C 87.608,79.27 80.312,77.665 71.724,76.785 Z"
     id="path1313" /><path
     fill="#5ea4d4"
     d="m 97.318,55.04 c 0.158,-0.083 0.318,-0.083 0.483,-0.163 l 1.441,-5.935 c -0.402,0.079 -0.803,0.159 -1.281,0.239 -0.242,2.007 -0.484,4.01 -0.643,5.859 z"
     id="path1315" /><path
     fill="#5ea4d4"
     d="m 92.265,57.365 c -0.242,4.894 -0.083,10.59 0.88,16.368 l 4.014,-16.447 c 0,-0.724 0.077,-1.526 0.16,-2.246 -1.766,0.64 -3.448,1.443 -5.054,2.325 z"
     id="path1317" /><path
     fill="#59438f"
     d="m 106.945,53.916 0.72,-4.091 C 105.34,48.86 102.53,48.461 99.243,48.943 l -1.441,5.935 c 2.887,-0.962 6.015,-1.365 9.143,-0.962 z"
     id="path1319" /><path
     fill="#59438f"
     d="m 97.236,57.286 -4.008,16.447 c 0.401,2.402 0.962,4.894 1.765,7.297 0,0 -1.204,-0.319 -3.288,-0.881 L 90.5,85.043 c 3.37,0.885 6.735,2.006 10.105,3.37 l 0.726,-4.008 C 99.243,78.946 96.757,69.483 97.236,57.286 Z"
     id="path1321" /><path
     fill="#59438f"
     d="m 105.021,25.836 -0.083,0.079 -0.077,0.322 c 0,-0.161 0.077,-0.242 0.16,-0.401 z"
     id="path1323" /><path
     fill="#9f468c"
     d="m 103.574,89.694 c 0,0 -1.044,-1.841 -2.325,-5.288 l -0.721,4.008 c 1.039,0.478 2.085,0.884 3.046,1.28 z"
     id="path1325" /><path
     fill="#9f468c"
     d="m 107.665,49.825 -0.72,4.091 c 3.453,0.481 6.983,1.844 10.431,4.734 v 0 c -0.32,-0.561 -3.448,-6.34 -9.711,-8.825 z"
     id="path1327" /><path
     fill="#9f468c"
     d="m 100.529,88.496 v 0 l 0.721,-4.013 v 0 z"
     id="path1329" /><path
     fill="#9f468c"
     d="m 106.945,53.916 v 0 l 0.803,-4.091 v 0 z"
     id="path1331" /><g
     id="g1387">
	<path
   fill="#060001"
   d="m 59.369,0 c 32.791,0 59.37,26.581 59.37,59.372 0,32.786 -26.579,59.369 -59.37,59.369 C 26.578,118.741 0,92.158 0,59.372 0,26.581 26.578,0 59.369,0 Z"
   id="path1333" />
	<g
   id="g1385">
		<path
   fill="#59438f"
   d="m 11.711,27.84 c 0,0 2.331,5.377 4.332,13.801 l 2.727,-7.302 z"
   id="path1335" />
		<path
   fill="#80478f"
   d="m 18.771,34.339 -2.727,7.302 c 1.529,6.499 2.727,14.842 2.491,24.071 l 4.734,-13.72 c -0.324,-2.648 -0.643,-5.458 -1.127,-8.426 l 3.052,2.889 1.605,-4.655 z"
   id="path1337" />
		<path
   fill="#d42c78"
   d="m 28.723,56.24 c 0,0 3.128,17.811 -4.333,34.664 0,0 0.88,-0.324 2.567,-0.803 L 35.782,62.985 C 33.616,61.214 31.208,59.05 28.723,56.24 Z"
   id="path1339" />
		<polygon
   fill="#d42c78"
   points="26.716,41.641 25.11,46.375 37.465,57.846 39.07,52.953 "
   id="polygon1341" />
		<path
   fill="#d42c78"
   d="m 13.399,90.663 c 0,0 13.96,-1.122 9.787,-38.751 L 18.452,65.63 C 18.21,73.651 16.77,82.157 13.399,90.663 Z"
   id="path1343" />
		<path
   fill="#deb343"
   d="m 51.909,52.15 -3.128,4.09 c 0,0 1.044,1.205 2.809,2.97 l 1.282,-6.019 c -0.32,-0.317 -0.644,-0.639 -0.963,-1.041 z"
   id="path1345" />
		<polygon
   fill="#deb343"
   points="55.279,42.443 57.687,31.21 39.312,53.191 39.07,52.953 37.465,57.846 39.312,59.532 "
   id="polygon1347" />
		<path
   fill="#deb343"
   d="m 32.973,82.959 c 0,0 2.089,-8.104 1.446,-14.84 l 12.272,7.697 c 0,0 0.566,-0.318 1.529,-1.045 l 1.841,-8.582 c -1.04,0.803 -2.084,1.688 -3.288,2.49 0,0 -4.734,-0.885 -10.991,-5.695 L 26.957,90.1 c 3.371,-1.045 9.946,-2.809 18.694,-3.936 l 1.44,-6.418 c -4.651,0.645 -9.384,1.69 -14.118,3.213 z"
   id="path1349" />
		<polygon
   fill="#81ba5a"
   points="58.407,39.073 68.837,50.545 70.201,44.288 57.764,31.21 57.687,31.21 55.279,42.443 "
   id="polygon1351" />
		<path
   fill="#81ba5a"
   d="m 64.581,70.605 1.128,-5.218 c -1.045,-0.798 -2.25,-1.842 -3.613,-2.963 1.765,-1.849 3.689,-4.018 5.619,-6.343 v -0.159 l -3.293,-4.011 c 0,0 -2.166,2.886 -6.174,6.897 -1.605,-1.603 -3.453,-3.45 -5.377,-5.535 l -1.282,6.015 c 0.88,0.879 1.925,1.925 3.046,3.046 -1.364,1.286 -2.969,2.574 -4.574,3.937 l -1.841,8.583 c 1.924,-1.364 5.696,-4.25 10.43,-8.902 1.841,1.518 3.848,3.125 5.931,4.653 z"
   id="path1353" />
		<path
   fill="#81ba5a"
   d="m 47.092,79.666 -1.44,6.423 c 4.652,-0.645 10.028,-1.122 15.802,-1.205 l 1.37,-6.339 c -4.978,-0.001 -10.272,0.318 -15.732,1.121 z"
   id="path1355" />
		<path
   fill="#5ea4d4"
   d="m 67.716,55.842 v 0.16 c 0,-0.001 0,-0.08 0,-0.16 z"
   id="path1357" />
		<path
   fill="#5ea4d4"
   d="m 73.169,69.879 c 0,0 -2.325,-0.479 -7.46,-4.492 l -1.128,5.218 c 3.135,2.243 6.423,4.25 9.551,5.454 0,0 2.97,-4.652 7.862,-9.545 l 1.364,-7.143 c -3.371,2.646 -6.9,6.099 -10.189,10.508 z"
   id="path1359" />
		<path
   fill="#5ea4d4"
   d="m 76.941,59.532 7.698,-7.222 1.369,-7.298 c -4.172,3.849 -7.625,6.98 -8.104,7.46 l -7.703,-8.184 -1.363,6.257 z"
   id="path1361" />
		<path
   fill="#5ea4d4"
   d="m 62.823,78.626 -1.37,6.34 c 5.218,-0.083 10.832,0.077 16.77,0.72 l 1.121,-5.938 C 74.61,79.105 68.997,78.626 62.823,78.626 Z"
   id="path1363" />
		<path
   fill="#80478f"
   d="M 105.983,24.552 Z"
   id="path1365" />
		<path
   fill="#80478f"
   d="m 99,50.707 -1.6,5.936 c 3.767,-1.122 7.78,-1.284 11.954,-0.081 l 0.644,-3.529 C 107.264,51.348 103.657,50.306 99,50.707 Z"
   id="path1367" />
		<path
   fill="#80478f"
   d="m 94.909,83.042 c 0,0 -1.605,-0.483 -4.332,-1.21 l -1.441,5.461 c 4.492,0.884 9.066,2.084 13.718,3.528 0,0 -7.06,-13.476 -5.455,-34.259 l -4.657,17.171 c 0.486,3.052 1.206,6.176 2.167,9.309 z"
   id="path1369" />
		<path
   fill="#59438f"
   d="m 117.375,60.653 c 0,0 -2.167,-4.73 -7.301,-7.7 l -0.644,3.53 c 2.569,0.803 5.218,2.166 7.945,4.17 z"
   id="path1371" />
		<path
   fill="#d42c78"
   d="m 106.066,24.552 h -0.083 z"
   id="path1373" />
		<path
   fill="#d42c78"
   d="m 94.75,42.683 c 0,0 -1.446,4.014 -2.325,10.591 -2.567,1.364 -5.779,3.288 -9.149,6.098 l -1.364,7.143 c 2.727,-2.728 6.18,-5.542 10.029,-7.626 -0.237,4.415 -0.077,9.468 0.802,14.928 L 99,50.707 c -0.318,0 -0.561,0.08 -0.879,0.08 1.045,-6.98 3.129,-14.683 6.817,-22.864 0,0 -10.832,9.787 -18.771,17.089 l -1.363,7.298 z"
   id="path1375" />
		<path
   fill="#d42c78"
   d="m 79.344,79.748 -1.121,5.938 c 3.53,0.402 7.142,0.963 10.832,1.688 l 1.446,-5.459 c -2.65,-0.72 -6.5,-1.524 -11.157,-2.167 z"
   id="path1377" />
		<path
   fill="#d42c78"
   d="m 97.4,56.643 v 0 c 0,-0.081 0,-0.081 0,0 z"
   id="path1379" />
		<polygon
   fill="#d42c78"
   points="89.054,87.374 90.578,81.915 "
   id="polygon1381" />
		<path
   fill="#d42c78"
   d="m 99,50.707 -6.257,23.109 v 0 L 97.4,56.643 c 0,0 0,0 0,-0.081 v 0 z"
   id="path1383" />
	</g>
</g></g>
</svg>
